<?xml version="1.0" standalone="no"?>
<svg version="1.0" xmlns="http://www.w3.org/2000/svg"
 width="1276.000000pt" height="425.000000pt" viewBox="0 0 1276.000000 425.000000"
 preserveAspectRatio="xMidYMid meet">

<g transform="translate(0.000000,425.000000) scale(0.100000,-0.100000)"
fill="#000000" stroke="none">
<path d="M1252 3228 c-32 -39 -99 -339 -181 -808 -90 -513 -121 -742 -145
-1095 -9 -124 -17 -119 213 -123 l190 -4 3 -126 c3 -114 5 -127 22 -130 11 -2
33 10 55 30 56 53 108 91 198 143 l82 47 112 -82 c196 -145 284 -192 304 -161
3 5 -1 65 -9 133 -8 68 -12 125 -10 127 2 2 94 5 203 5 150 1 203 4 213 14 21
21 17 818 -5 1082 -34 398 -78 700 -123 840 -28 91 -44 103 -87 63 -45 -42
-145 -180 -178 -245 -16 -31 -37 -61 -46 -66 -10 -5 -140 -13 -290 -17 l-272
-7 -47 93 c-63 126 -142 265 -160 284 -19 18 -28 19 -42 3z m139 -304 c39 -75
77 -138 83 -140 6 -2 142 0 301 4 215 7 298 13 320 23 20 10 43 40 75 100 54
99 131 202 142 191 25 -25 84 -418 113 -753 22 -253 35 -678 28 -904 l-6 -195
-157 0 c-87 0 -171 -3 -187 -6 l-30 -6 -8 76 c-7 82 -24 113 -53 97 -10 -5
-52 -30 -95 -55 -43 -26 -109 -62 -146 -80 l-68 -35 -49 51 c-77 80 -207 191
-248 213 -37 20 -38 20 -52 1 -10 -15 -14 -51 -14 -133 l0 -113 -152 0 c-217
0 -202 -9 -194 119 17 264 54 540 137 1011 70 403 90 502 140 694 l11 39 19
-32 c10 -17 51 -92 90 -167z m142 -1605 c59 -55 107 -104 107 -108 0 -4 -16
-15 -35 -24 -31 -15 -122 -74 -190 -122 -20 -14 -20 -12 -17 88 3 147 13 267
21 267 4 0 55 -45 114 -101z m486 -165 c10 -82 17 -150 16 -152 -7 -8 -275
180 -275 193 0 3 39 25 88 49 48 25 101 53 117 64 36 22 31 36 54 -154z"/>
<path d="M2160 2524 c-99 -43 -142 -130 -160 -327 -29 -305 -59 -546 -71 -566
-25 -39 -76 -56 -174 -56 -103 0 -143 17 -182 75 -22 31 -23 42 -23 229 1 108
5 230 10 271 6 41 13 113 16 160 5 76 3 90 -18 129 -32 62 -74 82 -163 79 -67
-3 -70 -4 -70 -28 0 -23 4 -25 50 -28 71 -3 92 -9 114 -33 29 -31 32 -67 16
-191 -23 -170 -31 -491 -15 -558 27 -112 120 -172 264 -172 87 1 140 13 186
44 56 38 70 80 86 255 31 337 54 515 76 565 25 60 67 96 119 104 39 7 60 27
52 52 -6 17 -70 15 -113 -4z"/>
<path d="M1358 2329 c-21 -12 -24 -49 -6 -67 17 -17 83 -15 98 3 16 20 4 50
-26 63 -30 14 -44 15 -66 1z"/>
<path d="M2129 2311 c-21 -16 -22 -22 -11 -45 10 -22 18 -26 55 -26 48 0 67
13 67 47 0 42 -70 58 -111 24z"/>
<path d="M1603 1891 c-27 -17 -33 -27 -33 -56 0 -29 12 -48 77 -120 101 -113
108 -117 147 -73 125 140 147 179 126 218 -17 31 -53 41 -175 47 -99 4 -113 2
-142 -16z m181 -51 c73 0 76 -11 20 -84 l-49 -66 -62 68 c-34 37 -59 70 -55
73 12 12 46 18 76 13 16 -2 47 -4 70 -4z"/>
<path d="M2945 3137 c-61 -94 -127 -431 -160 -819 -36 -431 -42 -1030 -9
-1062 16 -17 186 -36 314 -36 l98 0 7 -77 c7 -89 18 -123 39 -123 9 0 80 36
160 80 79 44 148 80 153 80 5 0 31 -23 58 -51 73 -74 205 -170 230 -167 24 4
47 65 73 197 l17 88 207 7 c114 3 219 11 233 16 l25 10 0 197 c0 536 -52 1039
-144 1397 -41 156 -54 189 -78 194 -26 5 -110 -114 -174 -246 -38 -77 -62
-115 -77 -121 -31 -12 -517 -35 -561 -27 -54 10 -88 51 -231 272 -150 233
-151 234 -180 191z m147 -262 c157 -243 187 -269 318 -269 142 -1 495 16 533
25 43 11 67 44 93 124 16 52 103 205 115 205 4 0 23 -66 43 -147 81 -334 114
-655 131 -1259 l7 -222 -59 -6 c-32 -3 -121 -8 -199 -12 l-140 -6 4 59 c4 51
1 61 -14 67 -11 4 -75 -22 -191 -80 l-174 -86 -37 39 c-76 81 -244 193 -288
193 -27 0 -31 -10 -39 -121 l-7 -87 -47 -6 c-47 -6 -301 10 -311 20 -11 11 -4
723 8 874 34 404 60 588 109 774 24 90 28 97 41 80 7 -10 54 -82 104 -159z
m314 -1549 c37 -28 73 -61 81 -72 14 -21 10 -24 -94 -80 -59 -33 -114 -60
-120 -62 -10 -3 -13 33 -13 153 l0 156 40 -22 c22 -13 70 -46 106 -73z m454
-68 c-17 -115 -41 -208 -52 -208 -14 0 -116 81 -162 128 l-39 41 129 64 c71
36 130 61 132 56 2 -5 -1 -41 -8 -81z"/>
<path d="M3092 2398 c-69 -23 -84 -40 -59 -65 15 -15 20 -15 68 0 101 33 162
19 195 -46 30 -58 35 -92 44 -297 10 -254 26 -317 98 -389 52 -52 101 -71 179
-71 105 0 189 54 218 139 8 25 22 111 30 191 19 175 50 360 69 405 21 49 57
69 114 62 26 -3 55 -8 64 -12 11 -4 20 0 27 13 16 30 -7 52 -64 60 -177 27
-234 -76 -270 -485 -12 -143 -20 -187 -38 -223 -31 -62 -71 -82 -162 -78 -88
4 -123 27 -161 104 -25 52 -28 68 -35 244 -4 104 -11 206 -14 227 -38 217
-125 281 -303 221z"/>
<path d="M3479 2309 c-13 -25 -4 -86 14 -92 26 -9 47 13 47 51 0 58 -38 84
-61 41z"/>
<path d="M3601 2316 c-7 -8 -11 -32 -9 -53 3 -33 6 -38 28 -38 22 0 25 5 28
44 2 28 -1 47 -10 52 -18 12 -24 11 -37 -5z"/>
<path d="M3700 2290 c-6 -12 -10 -35 -8 -53 6 -61 68 -40 68 23 0 47 -40 67
-60 30z"/>
<path d="M3163 2213 c-18 -7 -16 -58 1 -72 21 -17 87 -10 100 11 8 13 5 23
-14 43 -22 24 -56 31 -87 18z"/>
<path d="M4012 2213 c-22 -9 -34 -41 -22 -63 13 -24 56 -27 88 -4 54 37 0 94
-66 67z"/>
<path d="M3492 2178 c-33 -33 1 -108 39 -88 34 19 21 100 -16 100 -6 0 -16 -5
-23 -12z"/>
<path d="M3603 2182 c-15 -10 -26 -56 -19 -80 16 -49 66 -25 66 32 0 43 -21
65 -47 48z"/>
<path d="M3689 2153 c-15 -40 0 -78 31 -78 22 0 25 5 28 38 5 64 -39 93 -59
40z"/>
<path d="M3507 2038 c-12 -6 -17 -22 -17 -52 0 -73 52 -88 65 -20 11 60 -11
93 -48 72z"/>
<path d="M3590 2025 c-19 -50 -6 -85 32 -85 20 0 31 33 26 76 -4 40 -44 46
-58 9z"/>
<path d="M3692 2028 c-17 -17 -15 -73 4 -89 23 -19 48 1 52 40 5 50 -27 78
-56 49z"/>
<path d="M3510 1867 c-40 -20 -38 -62 9 -134 58 -90 89 -102 154 -58 40 28 97
116 97 152 0 12 -8 26 -17 31 -31 16 -216 22 -243 9z m149 -63 c17 -4 31 -10
31 -13 0 -12 -62 -71 -74 -71 -10 0 -66 71 -66 84 0 8 69 8 109 0z"/>
<path d="M8493 2153 c-23 -2 -45 -9 -50 -16 -5 -7 -7 -191 -4 -432 l6 -420 25
0 c34 0 38 22 39 212 l1 162 88 0 88 0 31 -52 c17 -29 63 -114 102 -189 40
-76 76 -138 81 -138 20 0 40 13 40 26 0 19 -90 208 -139 293 -24 40 -41 74
-39 75 80 51 91 61 114 109 61 132 -1 298 -129 345 -53 20 -180 33 -254 25z
m245 -95 c65 -32 92 -81 92 -170 0 -58 -4 -71 -27 -99 -38 -45 -83 -60 -194
-66 l-96 -6 -6 123 c-4 68 -7 152 -7 188 l0 65 96 -6 c71 -4 107 -11 142 -29z"/>
<path d="M10613 2153 c-17 -2 -35 -10 -40 -16 -5 -7 -7 -197 -4 -432 l6 -420
22 -3 c36 -5 43 32 43 213 l0 165 92 -3 92 -2 96 -182 c53 -100 99 -185 102
-189 13 -12 48 8 48 27 0 22 -93 212 -148 303 -22 36 -31 61 -25 63 7 3 29 17
51 32 127 93 99 336 -48 411 -63 32 -184 46 -287 33z m255 -95 c65 -32 92 -81
92 -170 0 -58 -4 -71 -27 -99 -38 -45 -83 -60 -194 -66 l-96 -6 -6 129 c-4 71
-7 156 -7 188 l0 59 96 -6 c71 -4 107 -11 142 -29z"/>
<path d="M11520 2138 c-55 -133 -174 -452 -195 -523 -15 -49 -47 -136 -71
-192 -49 -113 -51 -125 -29 -143 12 -10 18 -10 30 0 14 11 69 145 117 283 l23
67 141 0 142 0 59 -172 c55 -164 59 -173 86 -176 21 -3 27 1 27 15 0 10 -40
142 -89 293 -50 151 -111 341 -136 423 -43 137 -48 147 -71 147 -16 0 -28 -8
-34 -22z m87 -278 l50 -160 -61 -2 c-64 -2 -169 2 -174 7 -5 4 121 315 128
315 3 0 29 -72 57 -160z"/>
<path d="M7057 2137 c-16 -11 -18 -50 -24 -403 -3 -214 -3 -402 0 -416 9 -36
31 -41 134 -28 185 24 275 60 342 136 53 61 75 132 74 244 -1 159 -49 287
-138 369 -67 60 -134 87 -253 101 -111 13 -115 12 -135 -3z m248 -83 c34 -12
68 -35 107 -74 46 -47 60 -68 78 -126 26 -83 37 -232 21 -290 -34 -124 -136
-186 -348 -209 l-63 -7 0 368 0 367 78 -6 c42 -3 100 -14 127 -23z"/>
<path d="M12055 2140 c-4 -6 -3 -198 1 -426 6 -384 8 -416 25 -424 12 -7 22
-6 32 4 12 12 13 67 10 333 -3 175 -8 363 -11 418 -6 92 -9 100 -29 103 -11 2
-24 -2 -28 -8z"/>
<path d="M5670 2133 c-24 -3 -50 -9 -57 -15 -10 -8 -13 -100 -13 -414 l0 -404
26 -10 c29 -11 146 -13 286 -3 98 6 115 14 102 48 -5 13 -35 15 -181 15 l-175
0 6 31 c3 17 6 98 6 180 l0 149 130 0 c118 0 130 2 140 19 7 15 6 23 -5 34
-11 12 -39 14 -145 9 l-130 -5 0 151 0 152 178 2 c175 3 177 3 180 25 3 17 -3
26 -23 33 -25 9 -228 11 -325 3z"/>
<path d="M7868 2133 c-34 -3 -51 -10 -58 -23 -7 -13 -10 -161 -9 -416 l2 -396
24 -9 c27 -10 194 -10 313 0 72 6 75 7 75 31 l0 25 -172 3 -173 2 0 180 0 180
129 0 c105 0 131 3 142 16 9 11 10 20 2 32 -9 15 -27 17 -142 13 l-131 -4 0
152 0 151 174 0 c185 0 202 5 171 47 -12 16 -30 18 -157 19 -79 1 -164 -1
-190 -3z"/>
<path d="M10010 2133 c-24 -3 -48 -9 -51 -15 -4 -6 -6 -193 -5 -417 l1 -406
25 0 c34 0 38 22 39 232 l1 182 56 7 c31 3 77 4 103 1 56 -7 74 2 69 34 -3 23
-6 24 -114 27 l-111 3 -6 136 c-3 76 -3 141 -1 145 3 4 76 8 163 8 121 0 162
3 177 14 15 12 17 18 8 33 -10 16 -28 18 -160 19 -82 0 -169 -1 -194 -3z"/>
<path d="M4892 2118 c-16 -21 -20 -814 -4 -830 21 -21 293 -16 357 6 109 39
159 106 159 216 0 47 -6 76 -21 106 -25 48 -84 102 -125 116 l-29 10 35 24
c46 31 66 71 66 129 0 124 -91 198 -275 225 -95 13 -151 12 -163 -2z m268 -89
c57 -24 95 -64 105 -108 18 -85 -81 -149 -257 -167 l-68 -6 0 157 0 158 84 -6
c53 -4 104 -14 136 -28z m31 -339 c92 -26 149 -93 149 -177 0 -73 -22 -107
-88 -140 -48 -23 -70 -27 -183 -31 l-129 -5 2 174 3 174 50 6 c84 10 158 9
196 -1z"/>
<path d="M6217 2124 c-19 -20 16 -798 38 -834 9 -15 45 -12 51 5 4 8 -1 158
-9 332 -9 175 -15 319 -13 321 2 1 16 -19 32 -45 62 -107 334 -511 374 -556
30 -34 49 -47 64 -45 21 3 21 4 17 293 -2 160 -6 344 -10 410 l-6 120 -27 3
c-18 2 -28 -1 -29 -10 -1 -27 1 -181 7 -433 l5 -260 -20 25 c-38 45 -287 432
-357 555 -48 84 -76 121 -90 123 -11 2 -23 0 -27 -4z"/>
<path d="M9275 2110 c-23 -11 -48 -33 -58 -49 -31 -53 -16 -164 32 -229 l19
-27 -57 -61 c-79 -84 -105 -141 -106 -229 0 -60 4 -78 31 -125 44 -78 106
-115 188 -114 71 1 153 30 227 80 l52 34 44 -37 c68 -58 79 -64 96 -57 41 15
29 35 -75 125 l-28 24 29 58 c57 118 64 167 21 167 -15 0 -25 -11 -36 -37 -8
-21 -24 -59 -36 -86 l-22 -47 -24 22 c-13 13 -66 79 -118 147 l-94 124 44 39
c62 54 86 96 86 150 0 55 -31 106 -80 130 -46 23 -86 23 -135 -2z m130 -75
c28 -28 31 -54 11 -94 -19 -35 -84 -93 -97 -86 -18 12 -59 104 -59 135 0 68
94 97 145 45z m29 -440 l125 -154 -32 -25 c-95 -72 -219 -97 -281 -56 -74 48
-99 165 -55 252 17 33 104 138 114 138 2 0 60 -70 129 -155z"/>
</g>
</svg>